<svg width="744" height="546" viewBox="0 0 744 546" fill="none" xmlns="http://www.w3.org/2000/svg">
<path d="M311.482 486.165C397.762 503.001 479.503 500.036 541.934 481.563C604.286 463.114 647.797 429.04 656.712 383.351C665.628 337.662 638.119 289.73 587.277 249.193C536.37 208.605 461.74 175.128 375.46 158.292C289.179 141.456 207.439 144.421 145.008 162.893C82.6554 181.343 39.1448 215.416 30.2295 261.106C21.3141 306.795 48.823 354.727 99.6653 395.263C150.572 435.852 225.202 469.329 311.482 486.165Z" fill="#8CFFFA" stroke="black" stroke-width="3"/>
<path d="M633.602 426.463C655.693 400.6 662.212 369.814 652.421 337.586C642.63 305.358 616.92 272.971 578.195 244.084C539.471 215.197 489.276 190.961 433.28 174.115C377.285 157.269 317.721 148.484 261.318 148.753C261.318 148.753 138.501 150 281.001 178.499C423.501 206.999 233.001 129.499 374.501 216.999C516.001 304.499 428.409 243.782 453.501 262.499C478.593 281.217 396.001 216.999 543.661 332.179C691.32 447.36 586.315 452.741 572.001 469.499L590.001 460.499L607.501 449.999L621.501 438.999L633.602 426.463Z" fill="#86D0CD" fill-opacity="0.6"/>
<ellipse cx="239.263" cy="243.5" rx="45.8492" ry="58.8076" transform="rotate(11.0414 239.263 243.5)" fill="#030202"/>
<ellipse cx="465.263" cy="296.5" rx="45.8492" ry="58.8076" transform="rotate(11.0414 465.263 296.5)" fill="#030202"/>
<ellipse cx="461.338" cy="267.5" rx="21.1796" ry="28.9802" transform="rotate(11.0414 461.338 267.5)" fill="white"/>
<ellipse cx="235.338" cy="214.5" rx="21.1796" ry="28.9802" transform="rotate(11.0414 235.338 214.5)" fill="white"/>
<path d="M222.474 80.7693L170.021 35.5303C159.286 26.2708 142.684 29.7551 136.577 42.5495L106.738 105.059C99.0688 121.126 113.133 139.02 130.557 135.363L212.848 118.092C230.272 114.435 235.956 92.3971 222.474 80.7693Z" fill="#8CFFFA" stroke="black" stroke-width="3"/>
<path d="M664.202 245.854L674.271 177.324C676.332 163.297 664.49 151.151 650.415 152.854L581.651 161.178C563.977 163.318 556.412 184.783 568.84 197.531L627.536 257.737C639.964 270.485 661.615 263.469 664.202 245.854Z" fill="#8CFFFA" stroke="black" stroke-width="3"/>
<path d="M143.226 62.9967C136.344 56.5468 135.467 45.9327 141.195 38.4398V38.4398C147.604 30.0575 159.741 28.7859 167.748 35.6579L220.947 81.3152C229.917 89.0138 230.238 102.788 221.637 110.897V110.897C213.988 118.109 202.047 118.127 194.376 110.937L143.226 62.9967Z" fill="#86D0CD" fill-opacity="0.58"/>
<path d="M329.336 393.237C319.222 400.859 304.66 397.281 299.23 385.84L287.032 360.137C279.805 344.908 293.503 328.117 309.873 332.14L344.792 340.72C361.162 344.742 365.519 365.969 352.057 376.114L329.336 393.237Z" fill="#030202"/>
<path d="M222.561 361V361C236.486 397.9 282.064 410.915 313.375 386.931L315.086 385.621" stroke="#030202" stroke-width="15" stroke-linecap="round"/>
<path d="M314.34 383.823V383.823C324.455 424.122 369.209 444.773 406.436 426.32L408.621 425.237" stroke="#030202" stroke-width="15" stroke-linecap="round"/>
</svg>
